<svg width="501" height="101" viewBox="0 0 501 101" fill="none" xmlns="http://www.w3.org/2000/svg">
<path d="M42.7272 22.5872C42.7272 22.5872 32.7432 15.3116 27.0608 15.2054C21.3784 15.0992 17.8734 15.3116 13.7311 15.2054C9.58881 15.0992 0.135884 14.9399 0.560735 13.1343C0.932479 11.2756 15.1119 3.36271 32.7432 1.29156C50.3214 -0.779582 69.2803 2.61922 72.626 3.36271C72.626 3.36271 49.631 2.61922 42.7272 6.33667C35.8233 10.1072 36.7261 15.3647 38.4787 16.0551C47.0288 19.3477 47.666 20.463 56.0037 21.0471C60.6771 21.3658 66.9968 22.7465 72.5729 26.0922C78.2553 29.4379 86.3275 21.472 88.3455 20.4098C88.3455 20.4098 80.2202 33.6864 73.5288 35.2796C68.2713 36.6604 18.2451 42.98 3.53469 27.2606C3.53469 27.2606 18.2451 36.7666 25.9456 28.5351C30.141 24.0211 42.7272 22.5872 42.7272 22.5872Z" fill="#181A27"/>
<path d="M131.388 7.29258C134.84 5.96492 153.162 -2.5852 186.619 1.76952C192.726 2.61922 191.823 12.1253 185.61 11.5942C185.238 11.488 184.76 11.4349 184.229 11.3287C170.262 8.40781 155.87 -1.20443 137.177 10.5321C137.177 10.5321 163.146 10.6383 162.88 27.6854C162.88 27.6854 165.429 29.6503 174.139 31.6684C184.813 34.2706 217.049 25.1363 217.049 25.1363C217.049 25.1363 208.552 38.7315 162.88 37.6163C156.667 37.457 150.241 38.5191 145.249 29.2786C144.824 28.5351 145.249 27.3137 143.868 26.4109C142.487 25.5081 154.649 27.2606 149.551 16.3207C147.532 11.9659 129.105 13.2936 123.369 12.3908L124.909 11.0631C126.502 9.84168 127.671 9.09819 129.476 8.14228L131.388 7.29258Z" fill="#181A27"/>
<path d="M321.361 11.7004C315.466 4.31862 299.269 1.98195 299.269 1.98195C299.269 1.98195 274.946 -1.62929 252.854 2.88475C252.854 2.88475 250.677 3.57513 246.269 2.88475C243.189 1.34467 228.584 7.66432 228.584 7.66432C228.584 7.66432 216.742 14.7275 221.256 20.463C225.026 26.4109 234.373 26.995 242.445 26.995C251.261 26.995 249.243 26.1984 252.854 30.6594C254.341 33.7395 272.185 43.8297 285.992 32.6774C300.756 20.994 282.859 19.7726 276.274 21.2064C269.051 22.6403 266.715 22.6403 265.387 23.49C261.723 24.8708 253.597 28.5882 252.27 26.4109C252.27 26.4109 257.209 24.0742 255.775 18.1794C254.341 12.6032 274.256 8.77956 274.256 8.77956C274.256 8.77956 293.905 13.6653 296.136 16.9048C298.525 20.4629 303.783 35.2265 318.387 27.8978C320.83 26.995 322.901 24.8708 324.282 21.8968C325.663 17.6483 324.282 15.3116 321.361 11.7004ZM246.959 20.463C246.269 21.8968 240.268 19.0291 250.677 10.7976C254.341 7.66432 249.243 8.77956 249.243 4.84969C249.243 4.31862 250.677 3.57513 252.854 4.31862C257.209 5.75249 269.051 7.18637 269.051 7.18637C269.795 7.18637 253.597 13.6653 246.959 20.463Z" fill="#181A27"/>
<path d="M352.869 1.71641C348.886 2.72543 345.275 5.11522 343.257 8.51403C342.088 10.7976 341.345 13.2936 342.354 16.1613C344.956 23.3307 329.608 18.9229 328.068 25.0832C326.581 31.1373 346.602 35.2796 348.514 35.5983C358.02 37.0321 370.447 38.8908 387.707 36.979C387.707 36.979 361.897 37.7756 355.312 31.2435C350.426 26.1453 358.286 21.1533 352.497 17.8076C346.549 14.3557 345.115 8.99198 348.62 6.6553C352.072 4.15931 353.984 2.77854 360.835 3.09718C367.951 3.3096 374.802 3.41582 375.439 7.61122C376.13 11.9128 386.804 19.5601 389.512 20.463C392.274 21.2595 398.222 19.0822 397.213 22.1624C396.31 25.2956 386.698 40.8558 411.551 30.7125C429.714 23.2776 421.907 11.0631 414.154 9.78858C407.197 8.77956 401.833 15.6834 395.195 8.72645C395.195 8.72645 393.017 4.42484 385.795 3.89377C379.263 3.46892 366.517 -1.41686 352.869 1.71641Z" fill="#181A27"/>
<path d="M426.145 6.6022C422.215 8.35471 454.132 -8.32068 500.547 7.55811C500.547 7.55811 495.13 7.23947 490.35 9.31062C485.465 11.2756 483.128 8.62024 474.578 6.07113C466.028 3.62824 455.672 12.3377 452.486 13.9309C449.299 15.5772 441.333 23.3307 440.696 23.8086C440.059 24.3397 439.581 27.8447 445.422 26.3578C451.317 24.8708 450.414 29.2255 456.044 33.5802C461.673 37.9349 486.367 35.6514 486.367 35.6514C486.367 35.6514 481.269 36.979 473.994 37.4039C466.612 37.8818 434.961 38.9971 427.632 32.6243C427.632 32.6243 431.402 32.9429 432.465 30.3407C433.42 27.6854 432.571 23.968 435.916 21.4189C439.315 18.976 453.866 10.1072 454.929 8.83266C455.884 7.55811 452.857 9.57615 452.114 9.78858C451.317 10.1072 447.281 9.36373 446.378 7.505C444.573 3.68135 430.075 4.90279 426.145 6.6022Z" fill="#181A27"/>
<path d="M11.5276 60.6576C16.0594 58.9147 40.1123 47.6899 84.0352 53.4069C92.0529 54.5224 90.8677 67.002 82.7106 66.3049C82.2226 66.1654 81.5951 66.0957 80.8979 65.9563C62.5618 62.1217 43.668 49.5026 19.1269 64.9105C19.1269 64.9105 53.2195 65.0499 52.8709 87.4297C52.8709 87.4297 56.2174 90.0093 67.6513 92.6586C81.6648 96.0748 123.984 84.0832 123.984 84.0832C123.984 84.0832 112.829 101.931 52.8709 100.467C44.7138 100.258 36.2778 101.652 29.7242 89.5213C29.1664 88.5452 29.7242 86.9417 27.9115 85.7564C26.0988 84.5712 42.0645 86.8719 35.3715 72.5098C32.7222 66.7929 8.52964 68.5359 1 67.3506L3.02184 65.6077C5.11341 64.0041 6.64729 63.0281 9.01773 61.7731L11.5276 60.6576Z" fill="#181A27"/>
<path d="M256.953 67.6992C254.165 65.6774 243.079 61.564 238.408 59.0541C233.737 56.4745 216.238 53.128 206.965 52.9885C197.623 52.8491 192.045 53.8949 189.605 53.4069C182.982 52.4308 173.36 50.9667 168.55 52.4308C158.58 55.359 156.419 57.2414 152.445 59.4027C150.702 60.3788 148.889 61.1457 147.076 61.7731L138.362 64.771C133.551 66.3746 129.786 69.9302 128.601 74.462C126.579 82.3402 132.017 86.5233 134.039 87.9874C149.307 98.7939 166.598 98.8636 170.362 99.9094C174.058 100.955 184.167 101.373 193.718 99.7002C196.228 99.2819 206.477 96.6326 210.102 96.0051C220.281 94.2621 225.719 96.8417 233.249 97.1206C237.083 97.2601 246.635 96.772 261.206 84.2226C269.642 77.0416 265.041 73.6951 256.953 67.6992ZM227.671 84.5015C224.116 85.4078 212.682 89.2424 209.126 90.9156C204.943 92.9375 203.061 93.7741 195.252 92.8678C181.239 91.3339 187.862 84.7804 179.287 81.5036C173.988 79.4817 168.62 80.8761 166.807 81.0155C164.994 81.0155 158.789 81.5036 155.861 72.9282C153.491 66.1654 162.833 65.9563 165.203 56.5442C165.831 54.0343 174.127 54.1738 176.567 54.4526C181.936 55.0801 183.47 54.871 188.977 56.8928C194.834 58.9844 194.276 57.4506 216.516 59.7513C225.44 60.6576 231.088 66.7232 236.386 69.0239C243.079 71.9521 254.304 69.5816 253.467 74.1831C252.003 81.3641 240.151 81.643 227.671 84.5015Z" fill="#181A27"/>
<path d="M342.235 92.798C339.795 85.6867 329.268 85.6867 329.268 85.6867C321.111 85.6867 315.184 83.2466 315.184 83.2466C315.184 83.2466 317.834 78.8543 319.646 77.7388C321.599 76.7627 336.797 74.5317 336.797 74.5317C340.214 73.0676 352.763 71.7429 356.249 62.1217C358.062 57.2414 340.423 51.8033 328.71 51.873C277.397 52.1519 269.867 71.1155 269.867 71.1155C274.329 66.4443 277.327 68.257 278.373 68.257C279.279 68.3964 289.11 72.8584 289.807 73.207C290.643 73.5556 315.882 90.7065 326.27 97.26C335.751 103.186 349.068 100.258 357.155 97.0509C362.314 94.9593 361.687 99.3516 378.141 94.053C376.746 94.2621 343.49 96.284 342.235 92.798ZM305.215 59.821C305.215 59.821 311.35 53.8252 321.808 55.7076C323.272 55.9865 325.015 55.1498 326.2 55.7076C327.525 56.3351 330.732 58.7752 336.588 58.078C342.514 57.2414 344.188 57.8689 343.49 60.7273C342.793 63.6555 340.004 71.0457 325.433 73.9739C319.019 75.2289 316.788 74.5317 315.951 73.9739C315.045 73.2768 309.049 67.9781 303.263 66.7232C300.265 66.0957 303.053 59.6816 305.215 59.821ZM378.141 94.053H378.21C378.42 93.9833 378.35 93.9833 378.141 94.053Z" fill="#181A27"/>
<path d="M465.862 54.0343C465.862 54.0343 425.843 47.0624 395.027 57.7294C364.49 68.3267 399.001 78.7148 403.533 78.6451C409.459 78.5057 412.039 88.0572 407.716 89.8698C400.814 93.1466 405.555 96.0051 409.877 97.3995C414.13 98.7241 445.573 105.278 478.829 94.8896C497.723 89.2424 501 82.2008 501 82.2008C501 82.2008 478.411 88.8241 462.934 90.2184C446.968 91.8917 439.438 83.3163 435.883 87.7783C433.373 90.9156 425.564 88.1269 421.311 86.3142C419.987 85.6867 419.638 83.874 420.684 82.6888C423.124 79.9698 427.237 75.5078 429.399 73.9042C432.885 71.1155 441.46 74.5317 447.177 72.4401C452.964 70.5577 451.36 63.2372 446.062 62.54C440.205 61.7731 440.275 66.1654 434.628 68.0478C429.05 69.9302 421.311 79.1331 415.943 79.1331C410.435 79.1331 406.113 77.3204 413.224 70.488C413.224 70.488 417.825 65.6774 422.985 62.4006C430.305 58.0083 439.229 58.2175 444.179 58.7055C449.199 59.1935 455.334 54.3132 465.862 54.0343Z" fill="#181A27"/>
</svg>
